# 3ds Max Wavefront OBJ Exporter v0.97b - (c)2007 guruware
# File Created: 26.01.2013 07:50:36

mtllib tree1-with-branches-v1.mtl

#
# object polySurface1
#

v  -49.999985 0.000000 -86.602554
v  -49.999985 896.547546 -86.602554
v  50.000023 896.547546 -86.602531
v  50.000023 0.000000 -86.602531
v  -100.000000 0.000000 -0.000015
v  -100.000000 896.547546 -0.000015
v  -50.000011 0.000000 86.602539
v  -50.000015 896.547546 86.602539
v  49.999996 0.000000 86.602547
v  49.999992 896.547546 86.602554
v  100.000000 0.000000 -0.000000
v  100.000000 896.547546 -0.000000
v  -49.999985 1812.994019 -86.602554
v  -49.999985 2000.000000 -86.602554
v  50.000023 2000.000000 -86.602531
v  50.000023 1812.994019 -86.602531
v  100.000000 2000.000000 -0.000000
v  100.000000 1812.994019 -0.000000
v  49.999996 2000.000000 86.602547
v  49.999996 1812.994019 86.602547
v  -50.000011 2000.000000 86.602539
v  -50.000011 1812.994019 86.602539
v  -100.000000 2000.000000 -0.000015
v  -100.000000 1812.994019 -0.000015
v  -49.999985 1742.754395 -86.602554
v  50.000023 1742.754395 -86.602531
v  504.806885 2004.965820 -253.368408
v  504.806885 2043.558350 -253.368408
v  532.279114 2043.558350 -205.785126
v  532.279114 2004.965820 -205.785126
v  100.000000 1742.754395 -0.000000
v  49.999996 1742.754395 86.602547
v  -50.000011 1742.754395 86.602539
v  -379.020721 1881.723389 244.423126
v  -379.020721 1912.862915 244.423126
v  -401.187378 1912.862915 206.029343
v  -401.187378 1881.723389 206.029343
v  -100.000000 1742.754395 -0.000015
v  -49.999985 1339.542480 -86.602554
v  50.000023 1339.542480 -86.602531
v  100.000000 1339.542480 -0.000000
v  49.999992 1339.542480 86.602547
v  -50.000015 1339.542480 86.602539
v  -100.000000 1339.542480 -0.000015
v  -22.166561 1420.069580 -450.453125
v  -22.166561 1443.961670 -450.453125
v  22.166775 1443.961670 -450.453094
v  22.166775 1420.069580 -450.453094
v  50.000023 1285.650879 -86.602531
v  100.000000 1285.650879 -0.000000
v  49.999992 1285.650879 86.602554
v  -50.000015 1285.650879 86.602539
v  -100.000000 1285.650879 -0.000015
v  -49.999985 1285.650879 -86.602554
v  -49.999985 967.144409 -86.602554
v  50.000023 967.144409 -86.602531
v  100.000000 967.144409 -0.000000
v  49.999992 967.144409 86.602554
v  -50.000015 967.144409 86.602539
v  -100.000000 967.144409 -0.000015
v  22.166559 1035.615967 450.453125
v  22.166559 1066.913818 450.453125
v  -22.166775 1066.913818 450.453125
v  -22.166775 1035.615967 450.453125
v  -471.827026 1158.839233 -310.491333
v  -471.827026 1197.628296 -310.491333
v  -444.354797 1197.628296 -358.074585
v  -444.354797 1158.839233 -358.074585
v  -185.034698 1755.631836 143.395233
v  -216.701355 1755.631836 88.546951
v  -185.034698 1800.116821 143.395233
v  -216.701355 1800.116821 88.546951
v  -31.666611 1295.531006 -231.942368
v  31.666725 1295.531006 -231.942352
v  -31.666611 1329.662354 -231.942368
v  31.666725 1329.662354 -231.942352
v  31.666636 909.490295 231.942368
v  -31.666702 909.490295 231.942352
v  31.666636 954.201660 231.942368
v  -31.666702 954.201660 231.942352
v  277.921631 1849.939697 -201.834717
v  313.754944 1849.939697 -139.769577
v  277.921631 1900.278076 -201.834717
v  313.754944 1900.278076 -139.769577
v  -313.754883 1003.783386 -139.769730
v  -277.921539 1003.783386 -201.834885
v  -313.754883 1054.377808 -139.769730
v  -277.921539 1054.377808 -201.834885
v  0.000000 2365.634521 -0.000000
v  487.982544 2189.303467 381.799042
v  487.982544 2643.623291 381.799042
v  -487.982544 2643.623291 381.799042
v  -487.982544 2189.303467 381.799042
v  487.982544 2643.623291 -381.799042
v  -487.982544 2643.623291 -381.799042
v  487.982544 2189.303467 -381.799042
v  -487.982544 2189.303467 -381.799042
v  73.315155 1883.215576 464.937134
v  73.315155 2152.699463 464.937134
v  -445.650543 2152.699463 721.457764
v  -445.650543 1883.215576 721.457764
v  -127.387360 2152.699463 58.896759
v  -646.353027 2152.699463 315.417358
v  -127.387360 1883.215576 58.896759
v  -646.353027 1883.215576 315.417358
v  750.585205 1926.636108 -246.763062
v  750.585205 2122.616211 -246.763062
v  460.174255 2122.616211 58.039871
v  460.174255 1926.636108 58.039871
v  512.106506 2122.616211 -473.981506
v  221.695557 2122.616211 -169.178558
v  512.106506 1926.636108 -473.981506
v  221.695557 1926.636108 -169.178558
v  171.694031 1411.187500 -686.201294
v  171.694031 1618.283691 -686.201294
v  176.363739 1618.283691 -241.343918
v  176.363739 1411.187500 -241.343918
v  -176.363739 1618.283691 -682.547668
v  -171.694031 1618.283691 -237.690323
v  -176.363739 1411.187500 -682.547668
v  -171.694031 1411.187500 -237.690323
v  -643.191956 1031.240723 -623.114075
v  -643.191956 1301.489746 -623.114075
v  -110.937103 1301.489746 -391.297913
v  -110.937103 1031.240723 -391.297913
v  -824.565674 1301.489746 -206.676224
v  -292.310791 1301.489746 25.139954
v  -824.565674 1031.240723 -206.676224
v  -292.310791 1031.240723 25.139954
v  -305.817932 1031.240723 778.880981
v  -305.817932 1301.489746 778.880981
v  -295.881714 1301.489746 198.419739
v  -295.881714 1031.240723 198.419739
v  148.336761 1301.489746 786.655090
v  158.272980 1301.489746 206.193848
v  148.336761 1031.240723 786.655090
v  158.272980 1031.240723 206.193848
# 137 vertices

vn 0.000000 0.000000 -1.000000
vn 0.048671 0.000000 -0.998815
vn -0.866025 0.000000 -0.500000
vn -0.866026 0.000000 0.500000
vn -0.880487 0.000000 0.474070
vn -0.840664 0.000000 0.541558
vn 0.000000 0.000000 1.000000
vn 0.866025 0.000000 0.500000
vn 0.880487 0.000000 0.474070
vn 0.866026 0.000000 -0.500000
vn 0.000000 0.111190 -0.993799
vn -0.194655 0.000000 -0.980872
vn 0.860655 0.111190 -0.496900
vn 0.752132 0.000000 0.659012
vn 0.860655 0.111190 0.496900
vn 0.000000 0.111190 0.993799
vn 0.092701 0.000000 0.995694
vn -0.860655 0.111190 0.496899
vn -0.815945 0.000000 -0.578129
vn -0.860655 0.111190 -0.496900
vn -0.089721 0.000000 -0.995967
vn 0.866025 0.000000 -0.500000
vn 0.817672 0.000000 0.575685
vn 0.056186 0.000000 0.998420
vn -0.866026 0.000000 0.499999
vn -0.836564 0.000000 -0.547869
vn 0.888336 0.000000 -0.459193
vn 0.866026 0.000000 0.500000
vn -0.888336 0.000000 -0.459193
vn 0.000001 0.000000 -1.000000
vn 0.892506 0.000000 -0.451037
vn -0.892505 0.000000 -0.451037
vn 0.150138 0.000000 -0.988665
vn 0.897431 0.000000 0.441156
vn -0.897431 0.000000 0.441156
vn -0.781141 0.000000 0.624355
vn -0.866025 0.000000 -0.500001
vn -0.076432 -0.996098 0.044128
vn -0.263517 -0.952582 0.152142
vn 0.428751 0.000000 0.903423
vn 0.416475 0.000000 0.909147
vn -0.076431 0.996098 0.044128
vn -0.579105 0.000000 -0.815253
vn -0.568008 0.000000 -0.823023
vn 0.000000 -0.997698 -0.067822
vn 0.000000 -0.956455 -0.291881
vn 0.000000 -0.997697 -0.067822
vn -0.996787 0.000000 -0.080095
vn -0.995614 0.000000 -0.093557
vn 0.000000 0.997697 -0.067823
vn 0.995614 0.000000 -0.093557
vn 0.996787 0.000000 -0.080095
vn 0.000000 -0.996058 0.088701
vn 0.000000 -0.952496 0.304552
vn 0.996762 0.000000 0.080407
vn 0.995581 0.000000 0.093902
vn 0.000000 0.996058 0.088701
vn -0.995582 0.000000 0.093902
vn -0.996762 0.000000 0.080407
vn -0.432844 -0.866138 0.249903
vn 0.461910 0.000000 0.886927
vn 0.397103 0.888677 -0.229268
vn 0.397103 0.888676 -0.229268
vn -0.537142 0.000000 -0.843492
vn 0.000000 -0.868799 -0.495166
vn -0.999056 0.000000 -0.043435
vn 0.000000 0.886096 0.463502
vn 0.999056 0.000000 -0.043435
vn 0.000000 -0.866080 0.499906
vn 0.999056 0.000000 0.043435
vn 0.000000 0.888732 -0.458426
vn 0.000000 0.888733 -0.458426
vn -0.999056 0.000000 0.043435
vn 0.335578 -0.921873 -0.193745
vn 0.396896 -0.888800 -0.229147
vn 0.408090 -0.882015 -0.235610
vn -0.330849 0.000000 -0.943684
vn -0.395701 0.000000 -0.918380
vn -0.280456 0.946111 0.161920
vn -0.366249 0.906173 0.211453
vn -0.352682 0.913320 0.203620
vn 0.487452 0.000000 0.873150
vn 0.414461 0.000000 0.910067
vn -0.335712 -0.921808 -0.193823
vn -0.397003 -0.888736 -0.229209
vn -0.408192 -0.881952 -0.235669
vn -0.651820 0.000000 0.758373
vn -0.597483 0.000000 0.801881
vn 0.280310 0.946169 0.161838
vn 0.366139 0.906232 0.211390
vn 0.352565 0.913380 0.203554
vn 0.512435 0.000000 -0.858726
vn 0.580900 0.000000 -0.813975
vn 0.495447 -0.820189 -0.286046
vn -0.221494 0.000000 -0.975162
vn -0.469241 0.840486 0.270916
vn 0.289189 0.000000 0.957272
vn -0.495511 -0.820137 -0.286084
vn -0.733768 0.000000 0.679401
vn 0.469172 0.840538 0.270876
vn 0.684427 0.000000 -0.729082
vn 0.000000 0.230479 -0.973077
vn -0.842710 0.230479 -0.486539
vn -0.842710 0.230479 0.486538
vn 0.000000 0.230479 0.973077
vn 0.842710 0.230479 0.486539
vn 0.842710 0.230479 -0.486539
vn 0.000000 1.000000 -0.000000
vn 0.000000 -1.000000 -0.000000
vn 1.000000 0.000000 -0.000000
vn -1.000000 0.000000 -0.000000
vn 0.443116 0.000000 0.896465
vn -0.443116 0.000000 -0.896465
vn 0.896465 0.000000 -0.443115
vn -0.896465 0.000000 0.443115
vn 0.723993 0.000000 0.689808
vn -0.723993 0.000000 -0.689808
vn 0.689808 0.000000 -0.723992
vn -0.689808 0.000000 0.723992
vn 0.999945 0.000000 -0.010497
vn -0.999945 0.000000 0.010497
vn -0.010497 0.000000 -0.999945
vn 0.010497 0.000000 0.999945
vn 0.399307 0.000000 -0.916817
vn -0.399307 0.000000 0.916817
vn -0.916817 0.000000 -0.399307
vn 0.916817 0.000000 0.399307
vn -0.999854 0.000000 -0.017115
vn 0.999854 0.000000 0.017115
vn -0.017115 0.000000 0.999854
vn 0.017115 0.000000 -0.999854
# 131 vertex normals

vt 0.471909 0.006001 0.000000
vt 0.471909 0.449316 0.000000
vt 0.445361 0.449316 0.000000
vt 0.445361 0.006001 0.000000
vt 0.498458 0.006001 0.000000
vt 0.498458 0.449316 0.000000
vt 0.525007 0.006001 0.000000
vt 0.525007 0.449316 0.000000
vt 0.551555 0.006001 0.000000
vt 0.551555 0.449316 0.000000
vt 0.578104 0.006001 0.000000
vt 0.578104 0.449316 0.000000
vt 0.604652 0.006001 0.000000
vt 0.604652 0.449316 0.000000
vt 0.471909 0.902470 0.000000
vt 0.471909 0.994939 0.000000
vt 0.445361 0.994939 0.000000
vt 0.445361 0.902470 0.000000
vt 0.604652 0.902470 0.000000
vt 0.604652 0.994939 0.000000
vt 0.578104 0.994939 0.000000
vt 0.578104 0.902470 0.000000
vt 0.551555 0.994939 0.000000
vt 0.551555 0.902470 0.000000
vt 0.525007 0.994939 0.000000
vt 0.525007 0.902470 0.000000
vt 0.498458 0.994939 0.000000
vt 0.498458 0.902470 0.000000
vt 0.471909 0.867739 0.000000
vt 0.445361 0.867739 0.000000
vt 0.604652 0.867739 0.000000
vt 0.578104 0.867739 0.000000
vt 0.551555 0.867739 0.000000
vt 0.525007 0.867739 0.000000
vt 0.498458 0.867739 0.000000
vt 0.471909 0.668363 0.000000
vt 0.445361 0.668363 0.000000
vt 0.604652 0.668363 0.000000
vt 0.578104 0.668363 0.000000
vt 0.551555 0.668363 0.000000
vt 0.525007 0.668363 0.000000
vt 0.498458 0.668363 0.000000
vt 0.471909 0.641715 0.000000
vt 0.445361 0.641715 0.000000
vt 0.604652 0.641715 0.000000
vt 0.578104 0.641715 0.000000
vt 0.551555 0.641715 0.000000
vt 0.525007 0.641715 0.000000
vt 0.498458 0.641715 0.000000
vt 0.471909 0.484224 0.000000
vt 0.445361 0.484224 0.000000
vt 0.604652 0.484224 0.000000
vt 0.578104 0.484224 0.000000
vt 0.551555 0.484224 0.000000
vt 0.525007 0.484224 0.000000
vt 0.498458 0.484224 0.000000
vt 0.000000 0.000000 0.000000
vt 1.000000 0.000000 0.000000
vt 0.500000 1.000000 0.000000
vt 0.398519 0.609026 0.000000
vt 0.398519 0.992455 0.000000
vt 0.015090 0.992455 0.000000
vt 0.015090 0.609026 0.000000
vt 0.398248 0.987724 0.000000
vt 0.398248 0.989940 0.000000
vt 0.014819 0.989940 0.000000
vt 0.014819 0.987724 0.000000
vt 0.398519 0.606511 0.000000
vt 0.398519 0.989941 0.000000
vt 0.015090 0.989941 0.000000
vt 0.015090 0.606511 0.000000
# 71 texture coords

g polySurface1
usemtl lambert2SG
s 1
f 1/1/1 2/2/2 3/3/1 4/4/1 
s off
f 5/5/3 6/6/3 2/2/3 1/1/3 
s 2
f 7/7/4 8/8/5 6/6/6 5/5/4 
s off
f 9/9/7 10/10/7 8/8/7 7/7/7 
s 3
f 11/11/8 12/12/8 10/10/9 9/9/8 
s 4
f 4/13/10 3/14/10 12/12/10 11/11/10 
s 5
f 13/15/1 14/16/11 15/17/11 16/18/12 
s 6
f 16/19/10 15/20/13 17/21/13 18/22/10 
s 3
f 18/22/14 17/21/15 19/23/15 20/24/8 
s 8
f 20/24/7 19/23/16 21/25/16 22/26/17 
s 9
f 22/26/4 21/25/18 23/27/18 24/28/4 
s 10
f 24/28/19 23/27/20 14/16/20 13/15/3 
s 5
f 25/29/1 13/15/1 16/18/12 26/30/21 
s off
f 27/31/22 28/19/22 29/22/22 30/32/22 
s 3
f 31/32/23 18/22/14 20/24/8 32/33/8 
s 8
f 32/33/7 20/24/7 22/26/17 33/34/24 
s off
f 34/34/25 35/26/25 36/28/25 37/35/25 
s 10
f 38/35/26 24/28/19 13/15/3 25/29/3 
s 5
f 39/36/1 25/29/1 26/30/21 40/37/1 
s 4
f 40/38/27 26/31/10 31/32/10 41/39/10 
s 3
f 41/39/28 31/32/23 32/33/8 42/40/28 
s 8
f 42/40/7 32/33/7 33/34/24 43/41/7 
s 2
f 43/41/4 33/34/4 38/35/4 44/42/4 
s 10
f 44/42/3 38/35/26 25/29/3 39/36/29 
s off
f 45/43/30 46/36/30 47/37/30 48/44/30 
s 4
f 49/45/31 40/38/27 41/39/10 50/46/10 
s 3
f 50/46/8 41/39/28 42/40/28 51/47/8 
s 8
f 51/47/7 42/40/7 43/41/7 52/48/7 
s 2
f 52/48/4 43/41/4 44/42/4 53/49/4 
s 10
f 53/49/3 44/42/3 39/36/29 54/43/32 
s 1
f 55/50/33 54/43/1 49/44/1 56/51/1 
s 4
f 56/52/22 49/45/31 50/46/10 57/53/22 
s 3
f 57/53/8 50/46/8 51/47/8 58/54/34 
s 8
f 58/54/7 51/47/7 52/48/7 59/55/7 
s 2
f 59/55/35 52/48/4 53/49/4 60/56/36 
s 10
f 60/56/3 53/49/3 54/43/32 55/50/3 
s 1
f 2/2/2 55/50/33 56/51/1 3/3/1 
s 4
f 3/14/10 56/52/22 57/53/22 12/12/10 
s 3
f 12/12/8 57/53/8 58/54/34 10/10/9 
s off
f 61/10/7 62/54/7 63/55/7 64/8/7 
s 2
f 8/8/5 59/55/35 60/56/36 6/6/6 
s off
f 65/6/37 66/56/37 67/50/37 68/2/37 
s 13
f 33/34/38 69/34/39 70/35/39 38/35/38 
s 8
f 22/26/17 71/26/40 69/34/41 33/34/24 
s off
f 24/28/42 72/28/42 71/26/42 22/26/42 
s 10
f 38/35/26 70/35/43 72/28/44 24/28/19 
s 14
f 54/43/45 73/43/46 74/44/46 49/44/47 
s 10
f 39/36/29 75/36/48 73/43/49 54/43/32 
s off
f 40/37/50 76/37/50 75/36/50 39/36/50 
s 4
f 49/44/31 74/44/51 76/37/52 40/37/27 
s 15
f 10/10/53 77/10/54 78/8/54 8/8/53 
s 3
f 58/54/34 79/54/55 77/10/56 10/10/9 
s off
f 59/55/57 80/55/57 79/54/57 58/54/57 
s 2
f 8/8/5 78/8/58 80/55/59 59/55/35 
s 13
f 69/34/39 34/34/60 37/35/60 70/35/39 
s 8
f 71/26/40 35/26/61 34/34/61 69/34/41 
s off
f 72/28/62 36/28/62 35/26/63 71/26/63 
s 10
f 72/28/44 70/35/43 37/35/64 36/28/64 
s 14
f 73/43/46 45/43/65 48/44/65 74/44/46 
s 10
f 75/36/48 46/36/66 45/43/66 73/43/49 
s off
f 76/37/67 47/37/67 46/36/67 75/36/67 
s 4
f 76/37/52 74/44/51 48/44/68 47/37/68 
s 15
f 77/10/54 61/10/69 64/8/69 78/8/54 
s 3
f 79/54/55 62/54/70 61/10/70 77/10/56 
s off
f 80/55/71 63/55/72 62/54/72 79/54/72 
s 2
f 80/55/59 78/8/58 64/8/73 63/55/73 
s 16
f 26/31/74 81/31/75 82/32/76 31/32/74 
s 5
f 16/19/12 83/19/77 81/31/78 26/31/21 
s 17
f 18/22/79 84/22/80 83/19/81 16/19/79 
s 3
f 18/22/14 31/32/23 82/32/82 84/22/83 
s 18
f 6/6/84 85/6/85 86/2/86 2/2/84 
s 2
f 60/56/36 87/56/87 85/6/88 6/6/6 
s 19
f 55/50/89 88/50/90 87/56/91 60/56/89 
s 1
f 55/50/33 2/2/2 86/2/92 88/50/93 
s 16
f 82/32/76 81/31/75 27/31/94 30/32/94 
s 5
f 83/19/77 28/19/95 27/31/95 81/31/78 
s 17
f 84/22/80 29/22/96 28/19/96 83/19/81 
s 3
f 84/22/83 82/32/82 30/32/97 29/22/97 
s 18
f 86/2/86 85/6/85 65/6/98 68/2/98 
s 2
f 87/56/87 66/56/99 65/6/99 85/6/88 
s 19
f 88/50/90 67/50/100 66/56/100 87/56/91 
s 1
f 88/50/93 86/2/92 68/2/101 67/50/101 
s 5
f 15/57/11 14/58/11 89/59/102 
s 10
f 14/57/20 23/58/20 89/59/103 
s 9
f 23/57/18 21/58/18 89/59/104 
s 8
f 21/57/16 19/58/16 89/59/105 
s 3
f 19/57/15 17/58/15 89/59/106 
s 6
f 17/57/13 15/58/13 89/59/107 
s off
f 90/60/7 91/61/7 92/62/7 93/63/7 
f 91/64/108 94/65/108 95/66/108 92/67/108 
f 94/61/1 96/60/1 97/63/1 95/62/1 
f 96/60/109 90/60/109 93/63/109 97/63/109 
f 96/68/110 94/69/110 91/70/110 90/71/110 
f 93/71/111 92/70/111 95/69/111 97/68/111 
f 98/60/112 99/61/112 100/62/112 101/63/112 
f 99/64/108 102/65/108 103/66/108 100/67/108 
f 102/61/113 104/60/113 105/63/113 103/62/113 
f 104/60/109 98/60/109 101/63/109 105/63/109 
f 104/68/114 102/69/114 99/70/114 98/71/114 
f 101/71/115 100/70/115 103/69/115 105/68/115 
f 106/60/116 107/61/116 108/62/116 109/63/116 
f 107/64/108 110/65/108 111/66/108 108/67/108 
f 110/61/117 112/60/117 113/63/117 111/62/117 
f 112/60/109 106/60/109 109/63/109 113/63/109 
f 112/68/118 110/69/118 107/70/118 106/71/118 
f 109/71/119 108/70/119 111/69/119 113/68/119 
f 114/60/120 115/61/120 116/62/120 117/63/120 
f 115/64/108 118/65/108 119/66/108 116/67/108 
f 118/61/121 120/60/121 121/63/121 119/62/121 
f 120/60/109 114/60/109 117/63/109 121/63/109 
f 120/68/122 118/69/122 115/70/122 114/71/122 
f 117/71/123 116/70/123 119/69/123 121/68/123 
f 122/60/124 123/61/124 124/62/124 125/63/124 
f 123/64/108 126/65/108 127/66/108 124/67/108 
f 126/61/125 128/60/125 129/63/125 127/62/125 
f 128/60/109 122/60/109 125/63/109 129/63/109 
f 128/68/126 126/69/126 123/70/126 122/71/126 
f 125/71/127 124/70/127 127/69/127 129/68/127 
f 130/60/128 131/61/128 132/62/128 133/63/128 
f 131/64/108 134/65/108 135/66/108 132/67/108 
f 134/61/129 136/60/129 137/63/129 135/62/129 
f 136/60/109 130/60/109 133/63/109 137/63/109 
f 136/68/130 134/69/130 131/70/130 130/71/130 
f 133/71/131 132/70/131 135/69/131 137/68/131 
# 118 polygons - 6 triangles

