# OBJ written from /Library/WebServer/Documents/webgl/GlobalGameJam2013/art_assets/character-assets/fade-assets/fade-mask2.obj

o Mesh
v 0.0295395 0.17482 0
v -0.0121378 0.0465502 -0.11489
v -0.0491843 -0.0674673 -0.11489
v -0.0715665 -0.136352 -0.074928
v -0.0846871 -0.176734 0
v -0.0121378 0.0465502 0.11489
v -0.0491843 -0.0674673 0.11489
v -0.0715665 -0.136352 0.074928
v 0.0432381 0.152321 0
v 0.00603838 0.0378314 -0.0984054
v -0.0288694 -0.0696038 -0.0984054
v -0.0488418 -0.131072 -0.0627462
v -0.0598294 -0.164888 0
v 0.00603838 0.0378314 0.0984054
v -0.0288694 -0.0696038 0.0984054
v -0.0488418 -0.131072 0.0627462
v -0.0194246 -0.131455 -0.0641028
v -0.0306497 -0.166003 0
v -0.000276081 -0.072522 -0.0982909
v 0.0314181 0.0250226 -0.0982909
v 0.0670741 0.13476 0
v 0.0314181 0.0250226 0.0982909
v -0.000276081 -0.072522 0.0982909
v -0.0194246 -0.131455 0.0641028
v 0.0558433 0.00405564 -0.0697866
v 0.0333405 -0.0652014 -0.0697866
v 0.0197451 -0.107044 -0.045513
v 0.0117751 -0.131572 0
v 0.0197451 -0.107044 0.045513
v 0.0333405 -0.0652014 0.0697866
v 0.0558433 0.00405564 0.0697866
v 0.081159 0.0819692 0
v 0.0578655 0.124597 0
v 0.0263646 0.0276474 -0.0774256
v -0.00582128 -0.0714105 -0.0774256
v -0.0227268 -0.12344 -0.0472422
v -0.0309994 -0.148901 0
v 0.0263646 0.0276474 0.0774256
v -0.00582128 -0.0714105 0.0774256
v -0.0227268 -0.12344 0.0472422
v 0.0155575 0.131787 -0.0850151
v 0.0246611 0.159805 -0.0543773
v 0.0246611 0.159805 0.0543773
v 0.0155575 0.131787 0.0850151
v 0.0304137 0.112851 -0.0721121
v 0.0395172 0.140869 -0.0414744
v 0.0395172 0.140869 0.0414744
v 0.0304137 0.112851 0.0721121
v 0.0630235 0.122294 -0.0451504
v 0.0546936 0.0966572 -0.0731839
v 0.0546936 0.0966572 0.0731839
v 0.0630235 0.122294 0.0451504
v 0.0705019 0.0491702 -0.0539744
v 0.0788317 0.0748066 -0.0259409
v 0.0788317 0.0748066 0.0259409
v 0.0705019 0.0491702 0.0539744
v 0.0465143 0.0896617 -0.0556903
v 0.0556179 0.11768 -0.0250525
v 0.0556179 0.11768 0.0250525
v 0.0465143 0.0896617 0.0556903
v 0.0688862 0.0205094 0.0347123
v 0.0742434 0.036997 0.0166832
v 0.0757401 0.0416032 0
v 0.0742434 0.036997 -0.0166832
v 0.0688862 0.0205094 -0.0347123
v 0.0594589 -0.00850473 -0.0448815
v 0.0449868 -0.0530459 -0.0448815
v 0.0362433 -0.0799554 -0.0292705
v 0.0311176 -0.0957306 0
v 0.0362433 -0.0799554 0.0292705
v 0.0449868 -0.0530459 0.0448815
v 0.0594589 -0.00850473 0.0448815
v 0.0615616 -0.0161139 0.0150936
v 0.0625488 0.00100435 0.0148482
v 0.0665925 0.0134498 0
v 0.0625488 0.00100435 -0.0148482
v 0.0615616 -0.0161139 -0.0150936
v 0.055768 -0.0424269 -0.0169472
v 0.0567777 -0.0626525 -0.013643
v 0.0537536 -0.0719596 0
v 0.0567777 -0.0626525 0.013643
v 0.055768 -0.0424269 0.0169472
vn 0.951057 -0.309015 2.40453e-06
vn 0.951054 -0.309025 0
vn 0.951057 -0.309015 -2.40453e-06
vn 0.951058 -0.309012 0
vn -0.490086 0.55105 0.675396
vn -0.490087 0.55105 0.675395
vn -0.605236 0.196653 -0.771374
vn -0.605237 0.196653 -0.771373
vn -0.397853 0.834918 -0.380297
vn -0.397852 0.834918 -0.380298
vn 0.219335 -0.54192 -0.811305
vn 0.219336 -0.541919 -0.811305
vn 0.31038 -0.100848 0.945248
vn 0.31038 -0.100848 0.945248
vn 0.1746 -0.879221 0.443267
vn 0.174607 -0.879218 0.44327
vn 0.610731 -0.536366 -0.582511
vn 0.610733 -0.536364 -0.58251
vn 0.602213 -0.742045 0.294463
vn 0.602212 -0.742046 0.294463
vn 0.658441 -0.21394 0.721585
vn 0.658443 -0.21394 0.721583
vn -0.648924 0.210848 0.731055
vn -0.648923 0.210848 0.731055
vn -0.452376 0.815753 0.360421
vn -0.452382 0.815749 0.360422
vn -0.539793 0.546721 -0.640093
vn -0.539795 0.54672 -0.640092
vn -0.84326 -0.247663 -0.477048
vn -0.843261 -0.247662 -0.477048
vn -0.84326 -0.247663 0.477048
vn -0.843261 -0.247662 0.477048
vn 0.906496 0.140746 -0.398064
vn 0.906496 0.140744 -0.398065
vn -0.811287 -0.290936 -0.50712
vn -0.811286 -0.290936 -0.50712
vn -0.834152 -0.507874 0.215067
vn -0.834151 -0.507876 0.215068
vn -0.680616 -0.0353362 -0.731788
vn -0.680617 -0.0353355 -0.731787
vn 0.707226 0.662654 -0.246417
vn 0.707226 0.662654 -0.246417
vn 0.424442 0.173556 0.888666
vn 0.424442 0.173557 0.888666
vn 0.753886 -0.0147379 0.65684
vn 0.753886 -0.014738 0.65684
vn 0.954383 0.254634 -0.155931
vn 0.954384 0.254633 -0.155929
vn -0.865875 -0.456854 -0.203826
vn -0.865875 -0.456853 -0.203827
vn -0.720362 -0.00901647 0.69354
vn -0.720361 -0.00901726 0.693541
vn -0.951056 0.309017 -3.25623e-07
vn -0.951056 0.309018 2.17216e-06
vn -0.951056 0.309017 4.72685e-07
vn -0.951056 0.309017 5.63068e-07
vn -0.951057 0.309017 -4.31958e-06
vn 0.989763 -0.13287 0.0521088
vn 0.989762 -0.132871 0.0521105
vn 0.976697 -0.154901 -0.148557
vn 0.976697 -0.154901 -0.148558
vn 0.91246 -0.296475 -0.281991
vn 0.912462 -0.296473 -0.281988
vn 0.875501 -0.472474 -0.101324
vn 0.875501 -0.472475 -0.101324
vn 0.885998 -0.411671 0.213389
vn 0.885996 -0.411673 0.21339
vn 0.943564 -0.219733 0.2478
vn 0.943564 -0.219732 0.247801
vn 0.951056 -0.309017 -4.93069e-06
vn 0.994834 -0.0561574 -0.0845687
vn 0.894992 -0.40244 -0.192437
vn 0.650398 -0.0907355 -0.754155
vn 0.703408 -0.669821 0.237819
vn 0.731499 -0.627768 0.266112
vn 0.92275 -0.299816 0.242162
vn 0.971188 -0.205313 0.121
vn 0.998341 -0.0575723 0
vn 0.998341 -0.0575723 0
vn -0.397853 0.834918 0.380297
vn -0.397852 0.834918 0.380298
vn -0.605236 0.196653 0.771374
vn -0.605237 0.196653 0.771373
vn -0.490086 0.55105 -0.675396
vn -0.490087 0.55105 -0.675395
vn 0.1746 -0.879221 -0.443267
vn 0.174607 -0.879218 -0.44327
vn 0.31038 -0.100848 -0.945248
vn 0.31038 -0.100848 -0.945248
vn 0.219335 -0.54192 0.811305
vn 0.219336 -0.541919 0.811305
vn 0.658441 -0.21394 -0.721585
vn 0.658443 -0.21394 -0.721583
vn 0.602212 -0.742046 -0.294463
vn 0.602213 -0.742045 -0.294463
vn 0.610733 -0.536364 0.58251
vn 0.610731 -0.536366 0.582511
vn -0.648924 0.210848 -0.731055
vn -0.648923 0.210848 -0.731055
vn -0.539793 0.546721 0.640093
vn -0.539795 0.54672 0.640092
vn -0.452376 0.815753 -0.360421
vn -0.452382 0.815749 -0.360422
vn -0.811287 -0.290936 0.50712
vn -0.811286 -0.290936 0.50712
vn 0.618615 0.479559 -0.622365
vn 0.618616 0.479557 -0.622366
vn 0.906496 0.140746 0.398064
vn 0.906496 0.140744 0.398065
vn 0.618616 0.479557 0.622366
vn 0.618615 0.479559 0.622365
vn -0.680616 -0.0353362 0.731788
vn -0.680617 -0.0353355 0.731787
vn -0.834152 -0.507874 -0.215067
vn -0.834151 -0.507876 -0.215068
vn 0.424442 0.173556 -0.888666
vn 0.424442 0.173557 -0.888666
vn 0.707226 0.662654 0.246417
vn 0.707226 0.662654 0.246417
vn 0.753886 -0.0147379 -0.65684
vn 0.753886 -0.014738 -0.65684
vn 0.954383 0.254633 0.155931
vn 0.954383 0.254635 0.155929
vn -0.720362 -0.00901647 -0.69354
vn -0.720361 -0.00901726 -0.693541
vn -0.865875 -0.456853 0.203826
vn -0.865875 -0.456854 0.203827
vn -0.951056 0.309017 3.25623e-07
vn -0.951056 0.309017 -7.1254e-07
vn -0.951056 0.309018 -2.25869e-06
vn -0.951057 0.309017 1.74998e-06
vn -0.951056 0.309019 -1.92962e-06
vn 0.976697 -0.154901 0.148558
vn 0.976697 -0.154901 0.148557
vn 0.989763 -0.13287 -0.0521088
vn 0.989762 -0.132871 -0.0521105
vn 0.943564 -0.219732 -0.247801
vn 0.943564 -0.219733 -0.2478
vn 0.885996 -0.411673 -0.21339
vn 0.885998 -0.411671 -0.213389
vn 0.875501 -0.472475 0.101324
vn 0.875501 -0.472474 0.101324
vn 0.91246 -0.296475 0.281991
vn 0.912462 -0.296473 0.281988
vn 0.955297 -0.263198 0.134665
vn 0.966407 -0.0593165 -0.250079
vn 0.951056 -0.309018 3.69057e-06
vn 0.951057 -0.309014 -2.3345e-06
vn 0.941071 -0.305769 -0.144536
vn 0.938326 -0.186073 -0.291412
vn 0.72246 -0.653535 -0.225706
vn 0.691727 -0.658697 -0.296027
vn 0.750412 -0.496766 0.43601
vn 0.934333 -0.0115482 0.356214
vn 0.976607 -0.21503 0
vn 0.998756 0.049863 0
vn 0.998756 0.049863 0
vn 0.951056 -0.309018 -3.69057e-06
vn 0.951057 -0.309014 2.3345e-06
vt 1 0
vt 1 1
vt 0 0
vt 0 1
vt -1 1
vt -1 0
vt 1 1.44842
vt 0 1.31838
vt 1 0.55158
vt 0 0.681622
vt 0 0.702317
vt 1 0.681622
vt 0 0.79742
vt 1 0.783337
vt 1 0.69484
vt 0 0.783337
vt 0 -0.20258
vt 1 -0.216663
vt 0 0.20258
vt 1 0.216663
vt 1 -0.44842
vt 1 0.44842
vt 0 -0.318378
vt 0 0.318378
vt 1 -0.318378
vt 1 0.318378
vt 0 -0.297683
vt 0 0.297683
vt 1 0.30516
vt 0 0.216663
mtllib fade-mask2.mtl
usemtl mask
g Default
f 61//1 74//1 62//1
f 81//2 80//2 79//2
f 64//3 76//3 65//3
f 75//4 74//4 76//4
f 3//5 4//5 11//5
f 12//6 11//6 4//6
f 7//7 6//7 15//7
f 14//8 15//8 6//8
f 8//9 16//9 5//9
f 13//10 5//10 16//10
f 4//11 3//11 17//11
f 19//12 17//12 3//12
f 7//13 23//13 6//13
f 22//14 6//14 23//14
f 5//15 18//15 8//15
f 24//16 8//16 18//16
f 26//17 27//17 19//17
f 17//18 19//18 27//18
f 18//19 28//19 24//19
f 29//20 24//20 28//20
f 23//21 30//21 22//21
f 31//22 22//22 30//22
f 11//23 35//23 10//23
f 34//24 10//24 35//24
f 13//25 37//25 12//25
f 36//26 12//26 37//26
f 16//27 15//27 40//27
f 39//28 40//28 15//28
f 47//29 59//29 48//29
f 60//30 48//30 59//30
f 46//31 45//31 58//31
f 57//32 58//32 45//32
f 53//33 50//33 54//33
f 49//34 54//34 50//34
f 44//35 43//35 48//35
f 47//36 48//36 43//36
f 42//37 46//37 1//37
f 9//38 1//38 46//38
f 44//39 48//39 6//39
f 14//40 6//40 48//40
f 42//41 1//41 49//41
f 21//42 49//42 1//42
f 44//43 6//43 51//43
f 22//44 51//44 6//44
f 31//45 56//45 22//45
f 51//46 22//46 56//46
f 49//47 21//47 54//47
f 32//48 54//48 21//48
f 9//49 33//49 47//49
f 59//50 47//50 33//50
f 45//51 10//51 57//51
f 34//52 57//52 10//52
f 37//53 40//53 33//53
f 59//54 33//54 40//54
f 40//55 39//55 59//55
f 60//56 59//56 39//56
f 39//57 38//57 60//57
f 32//58 55//58 63//58
f 62//59 63//59 55//59
f 54//60 64//60 53//60
f 65//61 53//61 64//61
f 26//62 25//62 67//62
f 66//63 67//63 25//63
f 68//64 69//64 27//64
f 28//65 27//65 69//65
f 29//66 70//66 30//66
f 71//67 30//67 70//67
f 72//68 61//68 31//68
f 56//69 31//69 61//69
f 65//70 76//70 66//70
f 77//71 66//71 76//71
f 67//72 78//72 68//72
f 79//73 68//73 78//73
f 69//74 80//74 70//74
f 81//75 70//75 80//75
f 71//76 82//76 72//76
f 73//77 72//77 82//77
f 73//78 77//78 74//78
f 76//79 74//79 77//79
f 4//80 5//80 12//80
f 13//81 12//81 5//81
f 3//82 11//82 2//82
f 10//83 2//83 11//83
f 7//84 15//84 8//84
f 16//85 8//85 15//85
f 5//86 4//86 18//86
f 17//87 18//87 4//87
f 3//88 2//88 19//88
f 20//89 19//89 2//89
f 8//90 24//90 7//90
f 23//91 7//91 24//91
f 19//92 20//92 26//92
f 25//93 26//93 20//93
f 27//94 28//94 17//94
f 18//95 17//95 28//95
f 24//96 29//96 23//96
f 30//97 23//97 29//97
f 15//98 14//98 39//98
f 38//99 39//99 14//99
f 12//100 36//100 11//100
f 35//101 11//101 36//101
f 13//102 16//102 37//102
f 40//103 37//103 16//103
f 41//104 45//104 42//104
f 46//105 42//105 45//105
f 42//106 49//106 41//106
f 50//107 41//107 49//107
f 56//108 55//108 51//108
f 52//109 51//109 55//109
f 51//110 52//110 44//110
f 43//111 44//111 52//111
f 41//112 2//112 45//112
f 10//113 45//113 2//113
f 43//114 1//114 47//114
f 9//115 47//115 1//115
f 41//116 50//116 2//116
f 20//117 2//117 50//117
f 1//118 43//118 21//118
f 52//119 21//119 43//119
f 25//120 20//120 53//120
f 50//121 53//121 20//121
f 21//122 52//122 32//122
f 55//123 32//123 52//123
f 48//124 60//124 14//124
f 38//125 14//125 60//125
f 46//126 58//126 9//126
f 33//127 9//127 58//127
f 37//128 33//128 36//128
f 35//129 36//129 33//129
f 33//130 58//130 35//130
f 34//131 35//131 58//131
f 58//132 57//132 34//132
f 61//133 62//133 56//133
f 55//134 56//134 62//134
f 32//135 63//135 54//135
f 64//136 54//136 63//136
f 53//137 65//137 25//137
f 66//138 25//138 65//138
f 67//139 68//139 26//139
f 27//140 26//140 68//140
f 28//141 69//141 29//141
f 70//142 29//142 69//142
f 30//143 71//143 31//143
f 72//144 31//144 71//144
f 72//145 73//145 61//145
f 74//146 61//146 73//146
f 63//147 62//147 75//147
f 74//148 75//148 62//148
f 66//149 77//149 67//149
f 78//150 67//150 77//150
f 68//151 79//151 69//151
f 80//152 69//152 79//152
f 70//153 81//153 71//153
f 82//154 71//154 81//154
f 82//155 78//155 73//155
f 77//155 73//155 78//155
f 78//156 82//156 79//156
f 81//157 79//157 82//157
f 63//158 75//158 64//158
f 76//159 64//159 75//159
