# OBJ written from /Library/WebServer/Documents/webgl/GlobalGameJam2013/art_assets/character-assets/fade-assets/fade_mask.obj

o Mesh
v 0.0295395 0.17482 0
v -0.0121378 0.0465502 -0.11489
v -0.0491843 -0.0674673 -0.11489
v -0.0715665 -0.136352 -0.074928
v -0.0846871 -0.176734 0
v -0.0121378 0.0465502 0.11489
v -0.0491843 -0.0674673 0.11489
v -0.0715665 -0.136352 0.074928
v 0.0432381 0.152321 0
v 0.00603838 0.0378314 -0.0984054
v -0.0288694 -0.0696038 -0.0984054
v -0.0488418 -0.131072 -0.0627462
v -0.0598294 -0.164888 0
v 0.00603838 0.0378314 0.0984054
v -0.0288694 -0.0696038 0.0984054
v -0.0488418 -0.131072 0.0627462
v -0.0194246 -0.131455 -0.0641028
v -0.0306497 -0.166003 0
v -0.000276081 -0.072522 -0.0982909
v 0.0314181 0.0250226 -0.0982909
v 0.0670741 0.13476 0
v 0.0314181 0.0250226 0.0982909
v -0.000276081 -0.072522 0.0982909
v -0.0194246 -0.131455 0.0641028
v 0.0558433 0.00405564 -0.0697866
v 0.0333405 -0.0652014 -0.0697866
v 0.0197451 -0.107044 -0.045513
v 0.0117751 -0.131572 0
v 0.0197451 -0.107044 0.045513
v 0.0333405 -0.0652014 0.0697866
v 0.0558433 0.00405564 0.0697866
v 0.081159 0.0819692 0
v 0.0578655 0.124597 0
v 0.0263646 0.0276474 -0.0774256
v -0.00582128 -0.0714105 -0.0774256
v -0.0227268 -0.12344 -0.0472422
v -0.0309994 -0.148901 0
v 0.0263646 0.0276474 0.0774256
v -0.00582128 -0.0714105 0.0774256
v -0.0227268 -0.12344 0.0472422
v 0.0155575 0.131787 -0.0850151
v 0.0246611 0.159805 -0.0543773
v 0.0246611 0.159805 0.0543773
v 0.0155575 0.131787 0.0850151
v 0.0304137 0.112851 -0.0721121
v 0.0395172 0.140869 -0.0414744
v 0.0395172 0.140869 0.0414744
v 0.0304137 0.112851 0.0721121
v 0.0630235 0.122294 -0.0451504
v 0.0546936 0.0966572 -0.0731839
v 0.0546936 0.0966572 0.0731839
v 0.0630235 0.122294 0.0451504
v 0.0705019 0.0491702 -0.0539744
v 0.0788317 0.0748066 -0.0259409
v 0.0788317 0.0748066 0.0259409
v 0.0705019 0.0491702 0.0539744
v 0.0465143 0.0896617 -0.0556903
v 0.0556179 0.11768 -0.0250525
v 0.0556179 0.11768 0.0250525
v 0.0465143 0.0896617 0.0556903
v 0.0688862 0.0205094 0.0347123
v 0.0742434 0.036997 0.0166832
v 0.0757401 0.0416032 0
v 0.0742434 0.036997 -0.0166832
v 0.0688862 0.0205094 -0.0347123
v 0.0594589 -0.00850473 -0.0448815
v 0.0449868 -0.0530459 -0.0448815
v 0.0362433 -0.0799554 -0.0292705
v 0.0311176 -0.0957306 0
v 0.0362433 -0.0799554 0.0292705
v 0.0449868 -0.0530459 0.0448815
v 0.0594589 -0.00850473 0.0448815
v 0.0615616 -0.0161139 0.0150936
v 0.0625488 0.00100435 0.0148482
v 0.0665925 0.0134498 0
v 0.0625488 0.00100435 -0.0148482
v 0.0615616 -0.0161139 -0.0150936
v 0.055768 -0.0424269 -0.0169472
v 0.0567777 -0.0626525 -0.013643
v 0.0537536 -0.0719596 0
v 0.0567777 -0.0626525 0.013643
v 0.055768 -0.0424269 0.0169472
vn -0.397852 0.834918 0.380297
vn -0.490087 0.55105 0.675395
vn -0.605236 0.196653 0.771374
vn -0.605237 0.196653 -0.771373
vn -0.490086 0.55105 -0.675396
vn -0.397853 0.834918 -0.380297
vn 0.174606 -0.87922 -0.443266
vn 0.219336 -0.54192 -0.811304
vn 0.31038 -0.100848 -0.945248
vn 0.31038 -0.100848 0.945248
vn 0.219335 -0.54192 0.811305
vn 0.1746 -0.879221 0.443267
vn 0.658442 -0.213941 -0.721584
vn 0.610731 -0.536365 -0.582512
vn 0.602212 -0.742046 -0.294464
vn 0.602213 -0.742045 0.294463
vn 0.610733 -0.536364 0.58251
vn 0.658441 -0.21394 0.721585
vn -0.648924 0.210848 -0.731055
vn -0.648923 0.210848 0.731055
vn -0.539795 0.546721 0.640092
vn -0.452381 0.815751 0.360419
vn -0.452376 0.815753 -0.360421
vn -0.539793 0.546721 -0.640093
vn -0.811286 -0.290936 0.50712
vn -0.843261 -0.247662 -0.477048
vn 0.618615 0.479559 -0.622365
vn -0.843261 -0.247662 0.477047
vn 0.906496 0.140745 0.398066
vn 0.906496 0.140746 -0.398064
vn 0.618616 0.479558 0.622365
vn -0.811287 -0.290936 -0.50712
vn -0.680617 -0.0353355 0.731787
vn -0.834152 -0.507874 0.215068
vn -0.834151 -0.507876 -0.215068
vn -0.680616 -0.035336 -0.731788
vn 0.424442 0.173557 -0.888666
vn 0.707226 0.662654 -0.246417
vn 0.707226 0.662654 0.246417
vn 0.424442 0.173557 0.888666
vn 0.753886 -0.014738 -0.65684
vn 0.753886 -0.0147379 0.65684
vn 0.954383 0.254635 0.155929
vn 0.954384 0.254633 -0.155929
vn -0.720362 -0.00901647 -0.69354
vn -0.865875 -0.456854 -0.203826
vn -0.865875 -0.456853 0.203826
vn -0.720361 -0.00901688 0.693541
vn -0.951056 0.309019 -1.92962e-06
vn -0.951056 0.30902 2.81038e-06
vn 0.976697 -0.154901 0.148557
vn 0.989763 -0.132871 0.0521086
vn 0.989763 -0.13287 -0.0521088
vn 0.976697 -0.154901 -0.148557
vn 0.943564 -0.219732 -0.247801
vn 0.912461 -0.296475 -0.281988
vn 0.885997 -0.411672 -0.213391
vn 0.875501 -0.472474 -0.101323
vn 0.875501 -0.472475 0.101324
vn 0.885998 -0.411671 0.213389
vn 0.91246 -0.296475 0.281991
vn 0.943564 -0.219732 0.2478
vn 0.955297 -0.263198 0.134665
vn 0.951057 -0.309015 2.40453e-06
vn 0.951057 -0.309015 4.7729e-06
vn 0.951056 -0.309017 -4.93069e-06
vn 0.941071 -0.305769 -0.144536
vn 0.894992 -0.40244 -0.192437
vn 0.72246 -0.653535 -0.225706
vn 0.703408 -0.669821 0.237819
vn 0.750412 -0.496766 0.43601
vn 0.92275 -0.299816 0.242162
vn 0.976607 -0.21503 0
vn 0.998341 -0.0575723 0
vn 0.998756 0.049863 0
vn 0.951054 -0.309025 0
vn 0.951056 -0.309018 -3.69057e-06
vn 0.951057 -0.309015 -2.40453e-06
vn 0.951058 -0.309012 0
vt 0 1
vt 0 0
vt 1 0
vt 1 1
vt -1 0
vt -1 1
vt 0 -0.20258
vt 1 -0.216663
vt 1 0.216663
vt 0 0.20258
vt 0 -0.318378
vt 1 -0.44842
vt 1 0.44842
vt 0 0.318378
vt 1 1.44842
vt 0 1.31838
vt 0 0.681622
vt 1 0.55158
vt 0 -0.297683
vt 1 -0.318378
vt 1 0.318378
vt 0 0.297683
vt 1 0.681622
vt 0 0.702317
vt 1 0.783337
vt 0 0.79742
vt 1 0.30516
vt 0 0.216663
vt 1 0.69484
vt 0 0.783337
mtllib fade_mask.mtl
usemtl mask
g Default
f 5//1 13//1 12//1 4//1
f 4//2 12//2 11//2 3//2
f 3//3 11//3 10//3 2//3
f 6//4 14//4 15//4 7//4
f 7//5 15//5 16//5 8//5
f 8//6 16//6 13//6 5//6
f 4//7 17//7 18//7 5//7
f 3//8 19//8 17//8 4//8
f 2//9 20//9 19//9 3//9
f 7//10 23//10 22//10 6//10
f 8//11 24//11 23//11 7//11
f 5//12 18//12 24//12 8//12
f 20//13 25//13 26//13 19//13
f 19//14 26//14 27//14 17//14
f 17//15 27//15 28//15 18//15
f 18//16 28//16 29//16 24//16
f 24//17 29//17 30//17 23//17
f 23//18 30//18 31//18 22//18
f 15//19 14//19 38//19 39//19
f 10//20 11//20 35//20 34//20
f 11//21 12//21 36//21 35//21
f 12//22 13//22 37//22 36//22
f 13//23 16//23 40//23 37//23
f 16//24 15//24 39//24 40//24
f 46//25 42//25 41//25 45//25
f 60//26 48//26 47//26 59//26
f 42//27 49//27 50//27 41//27
f 45//28 57//28 58//28 46//28
f 51//29 56//29 55//29 52//29
f 53//30 50//30 49//30 54//30
f 44//31 51//31 52//31 43//31
f 48//32 44//32 43//32 47//32
f 10//33 45//33 41//33 2//33
f 46//34 9//34 1//34 42//34
f 9//35 47//35 43//35 1//35
f 48//36 14//36 6//36 44//36
f 50//37 20//37 2//37 41//37
f 21//38 49//38 42//38 1//38
f 52//39 21//39 1//39 43//39
f 22//40 51//40 44//40 6//40
f 53//41 25//41 20//41 50//41
f 31//42 56//42 51//42 22//42
f 55//43 32//43 21//43 52//43
f 32//44 54//44 49//44 21//44
f 48//45 60//45 38//45 14//45
f 9//46 33//46 59//46 47//46
f 46//47 58//47 33//47 9//47
f 10//48 34//48 57//48 45//48
f 57//49 34//49 35//49 36//49 37//49 33//49 58//49
f 59//50 33//50 37//50 40//50 39//50 38//50 60//50
f 56//51 61//51 62//51 55//51
f 55//52 62//52 63//52 32//52
f 32//53 63//53 64//53 54//53
f 54//54 64//54 65//54 53//54
f 53//55 65//55 66//55 25//55
f 25//56 66//56 67//56 26//56
f 26//57 67//57 68//57 27//57
f 27//58 68//58 69//58 28//58
f 28//59 69//59 70//59 29//59
f 29//60 70//60 71//60 30//60
f 30//61 71//61 72//61 31//61
f 31//62 72//62 61//62 56//62
f 72//63 73//63 74//63 61//63
f 61//64 74//64 62//64
f 62//65 74//65 75//65 63//65
f 65//66 76//66 77//66 66//66
f 66//67 77//67 78//67 67//67
f 67//68 78//68 79//68 68//68
f 68//69 79//69 80//69 69//69
f 69//70 80//70 81//70 70//70
f 70//71 81//71 82//71 71//71
f 71//72 82//72 73//72 72//72
f 77//73 73//73 82//73 78//73
f 73//74 77//74 76//74 74//74
f 81//75 79//75 78//75 82//75
f 81//76 80//76 79//76
f 63//77 75//77 76//77 64//77
f 64//78 76//78 65//78
f 75//79 74//79 76//79
