# OBJ written from /Library/WebServer/Documents/webgl/GlobalGameJam2013/art_assets/forested-land/Rocks/rock_003.obj

o Mesh
v 0.347804 0.217251 -0.0112895
v 0.404441 0.153365 -0.0030245
v 0.563833 -0.119504 0.0447264
v 0.57302 -0.201594 0.175379
v 0.53753 -0.09994 0.390452
v 0.276018 0.163393 0.392293
v 0.268648 0.2624 0.400663
v 0.276994 0.348366 0.334455
v 0.324983 0.509813 0.167919
v 0.30539 0.184204 -0.0838966
v 0.365573 -0.116241 -0.151794
v 0.19642 -0.275362 0.212528
v 0.422989 -0.301498 0.535482
v 0.165916 0.108348 0.558454
v 0.195632 0.361663 0.48071
v 0.346173 0.549889 0.372301
v 0.196381 0.648539 -0.0381675
v 0.248966 0.20094 -0.415512
v 0.36344 -0.20437 -0.334159
v 0.164473 -0.317224 0.218531
v 0.163938 -0.257482 0.517956
v 0.0205241 0.067499 0.705792
v 0.0710011 0.395247 0.513318
v 0.216326 0.609353 0.261726
v -0.314367 0.446702 -0.396339
v 0.00476506 0 -0.635076
v 0.088145 -0.302191 -0.411678
v -0.030818 -0.320084 0.168108
v 0.0112011 -0.183425 0.606273
v -0.137502 0.174688 0.566323
v -0.075261 0.466323 0.322688
v -0.070987 0.536307 0.140839
v -0.521402 0.493842 -0.38068
v -0.510443 0.126004 -0.270713
v -0.474537 -0.176904 -0.206556
v -0.43572 -0.307535 0.244644
v -0.428967 -0.18383 0.56781
v -0.450362 0.024168 0.52387
v -0.340558 0.32959 0.439167
v -0.323338 0.569782 0.237903
v -0.635765 0.334284 -0.426576
v -0.809977 0.086386 -0.245518
v -0.759287 -0.150857 -0.207855
v -0.788463 -0.150191 0.185327
v -0.810364 -0.172921 0.498598
v -0.740016 0.132169 0.451985
v -0.485295 0.419786 0.36438
v -0.486224 0.487944 0.00843545
v -0.643985 0.233315 -0.137815
v -0.844142 0.108354 -0.0476076
v -0.755559 -0.056473 -0.182292
v -0.848387 -0.103894 0.0213965
v -0.848417 0.063984 0.238839
v -0.708635 0.224953 0.1791
v -0.515316 0.378063 0.152112
v -0.500962 0.406337 0.0354725
v 0.441621 0.148751 0.18243
v -0.89302 0.162947 0.0701005
v 0.312399 0.282808 0.161583
v 0.335578 0.529851 0.27011
v 0.206354 0.68065 0.111779
v -0.107661 0.543209 -0.127749
v -0.337354 0.583516 -0.170381
v -0.504099 0.411114 -0.20907
v -0.572473 0.319826 -0.10728
vn 0.67677 0.435515 -0.593556
vn 0.67169 0.281334 -0.685335
vn 0.213749 -0.903592 -0.37126
vn 0.475562 -0.8785 -0.045588
vn 0.554218 0.400037 0.72994
vn 0.806245 0.064655 0.588038
vn 0.852277 -0.181426 0.49062
vn 0.852277 -0.181426 0.490621
vn 0.986714 -0.106965 0.122286
vn 0.970931 -0.189302 0.146485
vn 0.954291 -0.249958 0.163859
vn 0.936435 0.24461 -0.251509
vn 0.936434 0.24461 -0.251509
vn 0.961479 0.23523 -0.142214
vn 0.849947 -0.488986 0.196171
vn -0.00966 -0.998304 0.057413
vn 0.303114 -0.106472 0.946988
vn 0.523648 0.298757 0.797833
vn 0.523647 0.298757 0.797833
vn 0.012284 0.661735 0.749637
vn 0.544339 0.829611 0.124257
vn 0.687384 0.726294 -5.4e-05
vn 0.805592 0.577132 -0.133939
vn 0.243638 0.616853 -0.748421
vn 0.56657 -0.187213 -0.802465
vn 0.221959 -0.973768 -0.050111
vn -0.165887 -0.950581 0.262444
vn -0.340367 -0.335702 0.878325
vn -0.42613 0.571387 0.701377
vn -0.319751 0.839284 0.439729
vn -0.31975 0.839284 0.439729
vn -0.328926 0.942901 -0.052392
vn -0.433611 0.875816 0.211963
vn -0.401256 0.907858 0.121604
vn -0.475015 -0.053643 -0.878341
vn -0.496902 -0.450447 -0.741745
vn -0.183173 -0.970926 -0.15411
vn 0.000977 -0.946218 0.323528
vn -0.127547 0.107784 0.985959
vn -0.143866 0.508364 0.84904
vn 0.106016 0.769911 0.629284
vn 0.153328 0.988 0.018638
vn 0.169008 0.979758 -0.107287
vn 0.185538 0.944498 -0.271108
vn 0.267707 -0.468826 -0.841745
vn -0.035695 -0.190645 -0.98101
vn -0.260919 -0.954569 -0.143945
vn -0.245242 -0.958373 0.146214
vn -0.170291 0.186995 0.967488
vn -0.170291 0.186995 0.967489
vn -0.147632 0.358564 0.921758
vn -0.406628 0.804346 0.433223
vn -0.63548 0.771285 0.035828
vn -0.708121 0.680924 0.186836
vn -0.583018 0.810791 -0.052037
vn -0.68276 0.728276 0.058761
vn -0.940254 -0.337148 0.047478
vn -0.819633 -0.533282 -0.209312
vn -0.959956 -0.27779 0.036307
vn -0.846833 0.447426 0.287548
vn -0.846833 0.447425 0.287548
vn -0.68968 0.720335 0.073879
vn -0.954505 0.296324 0.033351
vn -0.791985 0.596273 0.13122
vn -0.79626 0.59139 0.127387
vn -0.895135 0.445339 0.020183
vn 0.750063 0.647596 -0.134261
vn 0.864198 0.476563 -0.161398
vn 0.926534 0.344458 0.151277
vn 0.936172 0.35135 -0.011586
vn 0.633106 0.625538 0.455938
vn 0.633106 0.625538 0.455937
vn 0.78522 0.006107 0.619187
vn 0.817477 0.299523 0.491953
vn 0.724094 0.680887 -0.109913
vn -0.608101 0.593155 -0.527619
vn -0.923231 -0.294532 -0.246771
vn -0.901059 -0.072674 -0.427564
vn -0.971082 -0.189041 0.145816
vn -0.53422 0.659959 0.528264
vn -0.513337 0.728188 0.454124
vn -0.512994 0.846552 0.142079
vn -0.552136 0.771937 -0.315055
vn -0.552136 0.771936 -0.315055
vn -0.552137 0.771937 -0.315055
vn 0.992502 -0.058025 0.107579
vn 0.834719 0.521791 -0.176008
vn -0.286088 0.947465 -0.143049
vn 0.200016 0.847015 -0.492503
vn -0.758026 0.554341 0.343661
vn -0.73821 0.651256 0.17582
vn -0.73821 0.651256 0.175821
vt 0.125 0.25
vt 0 0.25
vt 0 0.125
vt 0.125 0.125
vt 0.25 0.25
vt 0.25 0.125
vt 0.375 0.25
vt 0.375 0.125
vt 0.5 0.125
vt 0.5 0.25
vt 0.625 0.125
vt 0.625 0.25
vt 0.75 0.125
vt 0.75 0.25
vt 0.875 0.25
vt 0.875 0.125
vt 0.9375 0.125
vt 0.9375 0.25
vt 0.125 0.375
vt 0 0.375
vt 0.25 0.375
vt 0.375 0.375
vt 0.5 0.375
vt 0.625 0.375
vt 0.75 0.375
vt 0.875 0.375
vt 0.9375 0.375
vt 0 0.5
vt 0.125 0.5
vt 0.25 0.5
vt 0.375 0.5
vt 0.5 0.5
vt 0.625 0.5
vt 0.75 0.5
vt 0.875 0.5
vt 0.9375 0.5
vt 0.125 0.625
vt 0 0.625
vt 0.25 0.625
vt 0.375 0.625
vt 0.5 0.625
vt 0.625 0.625
vt 0.75 0.625
vt 0.875 0.625
vt 0.9375 0.625
vt 0.125 0.75
vt 0 0.75
vt 0.25 0.75
vt 0.375 0.75
vt 0.5 0.75
vt 0.625 0.75
vt 0.75 0.75
vt 0.875 0.75
vt 0.9375 0.75
vt 0.125 0.875
vt 0 0.875
vt 0.25 0.875
vt 0.375 0.875
vt 0.5 0.875
vt 0.625 0.875
vt 0.75 0.875
vt 0.875 0.875
vt 0.9375 0.875
vt 0.0625 0
vt 0.1875 0
vt 0.3125 0
vt 0.4375 0
vt 0.5625 0
vt 0.6875 0
vt 0.8125 0
vt 0.9375 0
vt 1 0.125
vt 0.0625 1
vt 0.1875 1
vt 0.3125 1
vt 0.4375 1
vt 0.5625 1
vt 0.6875 1
vt 0.8125 1
vt 0.9375 1
vt 1 0.875
vt 1 0.25
vt 1 0.375
vt 1 0.5
vt 1 0.625
vt 1 0.75
mtllib rock_003.mtl
usemtl blinn1SG
g pSphere3
f 10/1/1 9/2/1 1/3/1 2/4/1
f 11/5/2 10/1/2 2/4/2 3/6/2
f 12/7/3 11/5/3 3/6/3 4/8/3
f 12/7/4 4/8/4 5/9/4 13/10/4
f 13/10/5 5/9/5 6/11/5 14/12/5
f 14/12/6 6/11/6 7/13/6 15/14/6
f 16/15/7 15/14/8 7/13/8 8/16/7
f 59/17/9 60/18/10 16/15/11 8/16/11
f 18/19/12 17/20/12 9/2/13 10/1/13
f 18/19/14 10/1/14 11/5/14 19/21/14
f 19/21/15 11/5/15 12/7/15 20/22/15
f 21/23/16 20/22/16 12/7/16 13/10/16
f 13/10/17 14/12/17 22/24/17 21/23/17
f 22/24/18 14/12/19 15/14/19 23/25/18
f 24/26/20 23/25/20 15/14/20 16/15/20
f 24/26/21 16/15/21 60/18/22 61/27/23
f 25/28/24 17/20/24 18/19/24 26/29/24
f 19/21/25 27/30/25 26/29/25 18/19/25
f 27/30/26 19/21/26 20/22/26 28/31/26
f 28/31/27 20/22/27 21/23/27 29/32/27
f 29/32/28 21/23/28 22/24/28 30/33/28
f 22/24/29 23/25/29 31/34/29 30/33/29
f 24/26/30 32/35/31 31/34/30 23/25/30
f 62/36/32 32/35/33 24/26/33 61/27/34
f 26/29/35 34/37/35 33/38/35 25/28/35
f 26/29/36 27/30/36 35/39/36 34/37/36
f 27/30/37 28/31/37 36/40/37 35/39/37
f 29/32/38 37/41/38 36/40/38 28/31/38
f 29/32/39 30/33/39 38/42/39 37/41/39
f 30/33/40 31/34/40 39/43/40 38/42/40
f 39/43/41 31/34/41 32/35/41 40/44/41
f 40/44/42 32/35/42 62/36/43 63/45/44
f 34/37/45 42/46/45 41/47/45 33/38/45
f 34/37/46 35/39/46 43/48/46 42/46/46
f 36/40/47 44/49/47 43/48/47 35/39/47
f 37/41/48 45/50/48 44/49/48 36/40/48
f 45/50/49 37/41/50 38/42/50 46/51/50
f 46/51/51 38/42/51 39/43/51 47/52/51
f 40/44/52 48/53/52 47/52/52 39/43/52
f 63/45/53 64/54/54 48/53/55 40/44/55
f 41/47/56 42/46/56 50/55/56 49/56/56
f 42/46/57 43/48/57 51/57/57 50/55/57
f 43/48/58 44/49/58 52/58/58 51/57/58
f 44/49/59 45/50/59 53/59/59 52/58/59
f 46/51/60 54/60/61 53/59/61 45/50/61
f 46/51/62 47/52/62 55/61/62 54/60/62
f 47/52/63 48/53/63 56/62/63 55/61/63
f 64/54/64 65/63/65 56/62/66 48/53/66
f 2/4/67 1/3/67 57/64/67
f 3/6/68 2/4/68 57/65/68
f 4/8/69 3/6/69 57/66/69
f 5/9/70 4/8/70 57/67/70
f 6/11/71 5/9/72 57/68/72
f 7/13/73 6/11/73 57/69/73
f 8/16/74 7/13/74 57/70/74
f 57/71/75 1/72/75 59/17/75 8/16/75
f 49/56/76 50/55/76 58/73/76
f 50/55/77 51/57/77 58/74/77
f 51/57/78 52/58/78 58/75/78
f 52/58/79 53/59/79 58/76/79
f 53/59/80 54/60/80 58/77/80
f 54/60/81 55/61/81 58/78/81
f 55/61/82 56/62/82 58/79/82
f 58/80/83 56/62/84 65/63/84 49/81/85
f 1/72/86 9/82/86 60/18/10 59/17/9
f 61/27/23 60/18/22 9/82/87 17/83/87
f 17/83/88 25/84/88 62/36/32 61/27/34
f 25/84/89 33/85/89 63/45/44 62/36/43
f 64/54/54 63/45/53 33/85/90 41/86/90
f 41/86/91 49/81/92 65/63/65 64/54/64
