# 3ds Max Wavefront OBJ Exporter v0.97b - (c)2007 guruware
# File Created: 26.01.2013 06:31:11

mtllib column_02.mtl

#
# object Cylinder057
#

v  0.000000 0.000000 0.000004
v  -19.685041 34.095490 0.000004
v  19.685038 34.095490 0.000004
v  39.370079 0.000000 0.000004
v  -19.685036 -34.095490 0.000004
v  -39.370079 -0.000003 0.000004
v  19.685036 -34.095490 0.000004
v  19.685038 34.095490 39.370083
v  39.370079 0.000000 39.370083
v  -19.685041 34.095490 39.370083
v  -39.370079 -0.000003 39.370083
v  -19.685036 -34.095490 39.370083
v  19.685036 -34.095490 39.370083
v  19.685038 34.095490 78.740166
v  39.370079 0.000000 78.740166
v  -19.685041 34.095490 78.740166
v  -39.370079 -0.000003 78.740166
v  -19.685036 -34.095490 78.740166
v  19.685036 -34.095490 78.740166
v  19.685038 34.095490 118.110245
v  39.370079 0.000000 118.110245
v  -19.685041 34.095490 118.110245
v  -39.370079 -0.000003 118.110245
v  -19.685036 -34.095490 118.110245
v  19.685036 -34.095490 118.110245
v  19.685038 34.095490 157.480316
v  39.370079 0.000000 157.480316
v  -19.685041 34.095490 157.480316
v  -39.370079 -0.000003 157.480316
v  -19.685036 -34.095490 157.480316
v  19.685036 -34.095490 157.480316
v  0.000000 0.000000 157.480316
# 32 vertices

vn 0.000000 0.000000 -1.000000
vn 0.866025 0.500000 0.000000
vn 0.000000 1.000000 0.000000
vn -0.866026 0.500000 0.000000
vn -0.866025 -0.500000 0.000000
vn 0.000000 -1.000000 0.000000
vn 0.866025 -0.500000 0.000000
vn 0.000000 0.000000 1.000000
# 8 vertex normals

vt 3.000000 0.000000 0.000000
vt 4.000000 0.000000 0.000000
vt 5.500000 0.000000 1.000000
vt 4.500000 0.000000 1.000000
vt 2.500000 0.000000 1.000000
vt 1.500000 0.000000 1.000000
vt 0.500000 0.000000 1.000000
vt 3.500000 0.000000 1.000000
vt 5.500000 1.500000 1.000000
vt 4.500000 1.500000 1.000000
vt -0.500000 0.000000 1.000000
vt 0.500000 1.500000 1.000000
vt -0.500000 1.500000 1.000000
vt 1.500000 1.500000 1.000000
vt 2.500000 1.500000 1.000000
vt 3.500000 1.500000 1.000000
vt 5.500000 3.000000 1.000000
vt 4.500000 3.000000 1.000000
vt 0.500000 3.000000 1.000000
vt -0.500000 3.000000 1.000000
vt 1.500000 3.000000 1.000000
vt 2.500000 3.000000 1.000000
vt 3.500000 3.000000 1.000000
vt 5.500000 4.500000 1.000000
vt 4.500000 4.500000 1.000000
vt 0.500000 4.500000 1.000000
vt -0.500000 4.500000 1.000000
vt 1.500000 4.500000 1.000000
vt 2.500000 4.500000 1.000000
vt 3.500000 4.500000 1.000000
vt 5.500000 6.000000 1.000000
vt 4.500000 6.000000 1.000000
vt 0.500000 6.000000 1.000000
vt -0.500000 6.000000 1.000000
vt 1.500000 6.000000 1.000000
vt 2.500000 6.000000 1.000000
vt 3.500000 6.000000 1.000000
vt 3.000000 6.000000 0.000000
# 38 texture coords

g Cylinder057
usemtl 01___Default
s 1
f 1/1/1 2/2/1 3/3/1 4/4/1 
f 1/1/1 5/5/1 6/6/1 2/7/1 
f 1/1/1 4/4/1 7/8/1 5/5/1 
s off
f 4/4/2 3/3/2 8/9/2 9/10/2 
f 3/11/3 2/7/3 10/12/3 8/13/3 
f 2/7/4 6/6/4 11/14/4 10/12/4 
f 6/6/5 5/5/5 12/15/5 11/14/5 
f 5/5/6 7/8/6 13/16/6 12/15/6 
f 7/8/7 4/4/7 9/10/7 13/16/7 
f 9/10/2 8/9/2 14/17/2 15/18/2 
f 8/13/3 10/12/3 16/19/3 14/20/3 
f 10/12/4 11/14/4 17/21/4 16/19/4 
f 11/14/5 12/15/5 18/22/5 17/21/5 
f 12/15/6 13/16/6 19/23/6 18/22/6 
f 13/16/7 9/10/7 15/18/7 19/23/7 
f 15/18/2 14/17/2 20/24/2 21/25/2 
f 14/20/3 16/19/3 22/26/3 20/27/3 
f 16/19/4 17/21/4 23/28/4 22/26/4 
f 17/21/5 18/22/5 24/29/5 23/28/5 
f 18/22/6 19/23/6 25/30/6 24/29/6 
f 19/23/7 15/18/7 21/25/7 25/30/7 
f 21/25/2 20/24/2 26/31/2 27/32/2 
f 20/27/3 22/26/3 28/33/3 26/34/3 
f 22/26/4 23/28/4 29/35/4 28/33/4 
f 23/28/5 24/29/5 30/36/5 29/35/5 
f 24/29/6 25/30/6 31/37/6 30/36/6 
f 25/30/7 21/25/7 27/32/7 31/37/7 
s 1
f 32/38/8 31/37/8 27/32/8 26/31/8 
f 32/38/8 26/34/8 28/33/8 29/35/8 
f 32/38/8 29/35/8 30/36/8 31/37/8 
# 30 polygons

