# 3ds Max Wavefront OBJ Exporter v0.97b - (c)2007 guruware
# File Created: 26.01.2013 14:34:50

mtllib doodad-02.mtl

#
# object Pyramid004
#

v  75.136162 -52.109112 14.997542
v  71.051842 -52.109112 15.869498
v  73.323502 -53.872211 14.665191
v  74.753845 -46.819824 10.192734
v  75.724327 -53.872211 8.762897
v  70.340248 -45.056721 24.341677
v  73.751083 -45.056725 25.433548
v  70.922714 -43.293621 7.843366
v  66.305252 -48.582916 0.005000
v  69.414063 -47.248898 9.974361
v  67.321495 -41.530525 0.005000
v  72.123108 -55.635307 0.005000
v  69.722298 -52.109112 0.005000
v  74.523918 -52.109112 0.005000
v  76.924721 -48.582916 0.005000
v  72.123108 -48.582916 0.005000
v  74.523918 -45.056721 0.005000
v  72.123108 -41.530525 0.005000
v  69.722298 -45.056721 0.005000
v  70.922714 -46.819824 31.951912
v  73.323502 -46.819824 29.987953
v  68.521889 -50.346008 8.762897
v  72.806793 -50.607208 32.653091
v  70.922714 -50.346012 31.233667
v  75.724327 -43.293621 8.762897
v  68.521889 -53.872211 8.762897
v  67.321495 -55.635307 0.005000
v  76.924721 -41.530525 0.005000
v  76.924721 -55.635307 0.005000
v  68.521889 -43.293621 8.762897
v  72.901985 -48.582916 35.403076
# 31 vertices

vn 0.345792 -0.838592 0.420941
vn -0.123479 -0.917652 0.377715
vn 0.134120 -0.826531 0.546679
vn 0.992925 -0.039444 0.112005
vn 0.992513 0.102833 0.065899
vn 0.987834 0.083166 0.131402
vn -0.024574 0.983028 0.181802
vn -0.077094 0.966585 0.244479
vn 0.009618 0.986519 0.163367
vn -0.967203 0.019317 0.253270
vn -0.978667 -0.036938 0.202106
vn -0.968799 0.063264 0.239639
vn 0.000000 0.000000 -1.000000
vn 0.228213 0.932788 0.278973
vn 0.146862 0.952746 0.265908
vn -0.958625 0.058941 0.278503
vn -0.981335 -0.117944 0.151894
vn -0.403564 -0.831048 0.382746
vn -0.246248 -0.952174 0.180906
vn 0.983239 0.021616 0.181038
vn 0.993754 -0.097940 0.053484
vn 0.994824 -0.073965 0.069672
vn 0.994179 -0.006958 0.107513
vn -0.023220 0.987866 0.153562
vn -0.006917 0.977657 0.210094
vn -0.173934 -0.968885 0.176095
vn -0.024101 -0.988260 0.150872
vn -0.978498 -0.067837 0.194782
vn -0.965926 -0.051657 0.253609
vn -0.992053 -0.119924 0.038059
vn -0.974806 0.000000 0.223056
vn -0.974664 -0.105433 0.197267
vn 0.968964 -0.231180 0.087545
vn 0.981679 -0.047476 0.184535
vn 0.054258 0.988427 0.141663
vn 0.014412 0.976920 0.213119
vn 0.589686 -0.771192 0.239862
vn 0.052947 -0.989828 0.132047
vn -0.492887 -0.692486 0.526807
vn 0.993514 -0.105234 0.043073
vn 0.259476 0.912175 0.317190
vn -0.976955 -0.191479 0.094312
vn 0.990737 0.000000 0.135795
vn 0.000000 0.980332 0.197355
vn 0.000000 -0.980332 0.197355
vn -0.883528 -0.093484 0.458954
# 46 vertex normals

vt 0.750000 0.500000 0.000000
vt 0.250000 0.500000 0.000000
vt 0.625000 0.250000 0.000000
vt 0.744681 0.250000 0.000000
vt 0.329787 0.500000 0.000000
vt 0.244681 0.250000 0.000000
vt 0.659575 0.000000 0.000000
vt 0.494681 0.250000 0.000000
vt 0.159575 0.000000 0.000000
vt 0.500000 1.000000 0.000000
vt 0.250000 0.750000 0.000000
vt 0.750000 0.750000 0.000000
vt 1.000000 0.500000 0.000000
vt 0.500000 0.500000 0.000000
vt 0.750000 0.250000 0.000000
vt 0.500000 0.000000 0.000000
vt 0.250000 0.250000 0.000000
vt 0.000000 0.500000 0.000000
vt 0.625000 0.750000 0.000000
vt 0.375000 0.750000 0.000000
vt 0.829787 0.500000 0.000000
vt 0.664894 0.750000 0.000000
vt 0.414894 0.750000 0.000000
vt 0.125000 0.250000 0.000000
vt 0.994681 0.250000 0.000000
vt 1.159575 0.000000 0.000000
vt 0.000000 0.000000 0.000000
vt 1.000000 1.000000 0.000000
vt 0.875000 0.250000 0.000000
vt 1.000000 0.000000 0.000000
vt 0.000000 1.000000 0.000000
# 31 texture coords

g Pyramid004
usemtl 01___Default
s 4
f 1/1/1 2/2/2 3/3/3 
s 2
f 4/4/4 1/5/5 5/6/6 
s 16
f 6/1/7 7/2/8 8/3/9 
s 32
f 9/7/10 10/8/11 11/9/12 
s 8
f 12/10/13 13/11/13 14/12/13 
f 15/13/13 16/14/13 17/15/13 
f 18/16/13 17/15/13 19/17/13 
f 9/18/13 16/14/13 13/11/13 
s 16
f 20/19/14 21/20/15 6/1/7 
s 32
f 22/4/16 2/21/17 10/8/11 
s 4
f 23/19/18 24/20/19 1/1/1 
s 2
f 4/4/4 5/6/6 15/7/20 
f 21/22/21 23/23/22 7/21/23 
s 16
f 8/3/9 25/24/24 18/16/25 
s 4
f 3/3/3 26/24/26 12/16/27 
s 32
f 24/22/28 20/23/29 6/5/30 
f 26/25/31 22/4/16 27/26/32 
s 8
f 11/27/13 19/17/13 9/18/13 
s 2
f 25/25/33 4/4/4 28/26/34 
s 8
f 29/28/13 14/12/13 15/13/13 
s 16
f 30/29/35 8/3/9 11/30/36 
f 7/2/8 25/24/24 8/3/9 
s 4
f 5/29/37 3/3/3 29/30/38 
f 2/2/2 26/24/26 3/3/3 
s 16
f 8/3/9 18/16/25 11/30/36 
s 8
f 28/30/13 17/15/13 18/16/13 
s 4
f 3/3/3 12/16/27 29/30/38 
s 8
f 27/31/13 13/11/13 12/10/13 
s 4
f 31/10/39 24/20/19 23/19/18 
s 2
f 23/23/22 1/5/5 7/21/23 
f 31/10/40 23/23/22 21/22/21 
s 16
f 21/20/15 7/2/8 6/1/7 
f 31/10/41 21/20/15 20/19/14 
s 32
f 24/22/28 6/5/30 2/21/17 
f 2/21/17 6/5/30 10/8/11 
f 22/4/16 9/7/10 27/26/32 
s 8
f 13/11/13 16/14/13 14/12/13 
f 9/18/13 13/11/13 27/31/13 
f 18/16/13 19/17/13 11/27/13 
f 19/17/13 16/14/13 9/18/13 
s 32
f 22/4/16 10/8/11 9/7/10 
f 10/8/11 6/5/30 30/6/42 
s 4
f 1/1/1 3/3/3 5/29/37 
s 2
f 5/6/6 29/9/43 15/7/20 
s 8
f 17/15/13 16/14/13 19/17/13 
f 15/13/13 17/15/13 28/30/13 
f 12/10/13 14/12/13 29/28/13 
f 14/12/13 16/14/13 15/13/13 
s 2
f 7/21/23 1/5/5 4/4/4 
f 4/4/4 15/7/20 28/26/34 
s 32
f 10/8/11 30/6/42 11/9/12 
s 16
f 6/1/7 8/3/9 30/29/35 
s 2
f 7/21/23 4/4/4 25/25/33 
s 16
f 25/24/24 28/27/44 18/16/25 
s 32
f 2/21/17 22/4/16 26/25/31 
s 4
f 26/24/26 27/27/45 12/16/27 
s 32
f 31/10/46 20/23/29 24/22/28 
s 4
f 24/20/19 2/2/2 1/1/1 
# 0 polygons - 58 triangles

